HIERARCHY
ROOT Hips
{
	OFFSET 0.000000 89.005402 0.000000
	CHANNELS 6 Xposition Yposition Zposition Xrotation Yrotation Zrotation
	JOINT Spine
	{
		OFFSET 0.116900 10.681000 0.373400
		CHANNELS 3 Xrotation Yrotation Zrotation
		JOINT Spine1
		{
			OFFSET 0.000000 13.840401 0.053500
			CHANNELS 3 Xrotation Yrotation Zrotation
			JOINT Spine2
			{
				OFFSET 0.000000 14.712700 -0.366200
				CHANNELS 3 Xrotation Yrotation Zrotation
				JOINT Neck
				{
					OFFSET 0.000000 35.415497 -3.314200
					CHANNELS 3 Xrotation Yrotation Zrotation
					JOINT Head
					{
						OFFSET 0.000000 16.899200 1.218300
						CHANNELS 3 Xrotation Yrotation Zrotation
						JOINT HeadTop_End
						{
							OFFSET 0.000000 22.206207 2.192500
							CHANNELS 3 Xrotation Yrotation Zrotation
							End Site
							{
								OFFSET 0.000000 22.314178 0.000000
							}
						}
					}
				}
				JOINT LeftShoulder
				{
					OFFSET 12.896400 26.716293 -4.548400
					CHANNELS 3 Xrotation Yrotation Zrotation
					JOINT LeftArm
					{
						OFFSET 19.027000 -4.857010 -1.718400
						CHANNELS 3 Xrotation Yrotation Zrotation
						JOINT LeftForeArm
						{
							OFFSET 24.179897 0.000000 0.000000
							CHANNELS 3 Xrotation Yrotation Zrotation
							JOINT LeftHand
							{
								OFFSET 27.156403 0.000000 0.000000
								CHANNELS 3 Xrotation Yrotation Zrotation
								JOINT LeftHandIndex1
								{
									OFFSET 16.441200 0.000000 0.000000
									CHANNELS 3 Xrotation Yrotation Zrotation
									JOINT LeftHandIndex2
									{
										OFFSET 4.821899 0.000000 0.000000
										CHANNELS 3 Xrotation Yrotation Zrotation
										JOINT LeftHandIndex3
										{
											OFFSET 6.386497 0.000000 0.000000
											CHANNELS 3 Xrotation Yrotation Zrotation
											JOINT LeftHandIndex4
											{
												OFFSET 5.188988 0.000000 0.000000
												CHANNELS 3 Xrotation Yrotation Zrotation
												End Site
												{
													OFFSET -0.178703 5.185913 0.000177
												}
											}
										}
									}
								}
								JOINT LeftHandThumb1
								{
									OFFSET 6.534897 -5.032593 5.900300
									CHANNELS 3 Xrotation Yrotation Zrotation
									JOINT LeftHandThumb2
									{
										OFFSET 3.818176 -2.204422 2.204423
										CHANNELS 3 Xrotation Yrotation Zrotation
										JOINT LeftHandThumb3
										{
											OFFSET 3.252098 -1.877594 1.877601
											CHANNELS 3 Xrotation Yrotation Zrotation
											JOINT LeftHandThumb4
											{
												OFFSET 5.251778 -3.032120 3.032117
												CHANNELS 3 Xrotation Yrotation Zrotation
												End Site
												{
													OFFSET 0.000023 6.780014 0.000000
												}
											}
										}
									}
								}
							}
						}
					}
				}
				JOINT RightShoulder
				{
					OFFSET -12.896300 26.716293 -4.548400
					CHANNELS 3 Xrotation Yrotation Zrotation
					JOINT RightArm
					{
						OFFSET -19.027000 -4.857010 -1.718400
						CHANNELS 3 Xrotation Yrotation Zrotation
						JOINT RightForeArm
						{
							OFFSET -24.179897 0.000000 0.000000
							CHANNELS 3 Xrotation Yrotation Zrotation
							JOINT RightHand
							{
								OFFSET -27.156403 0.000000 0.000000
								CHANNELS 3 Xrotation Yrotation Zrotation
								JOINT RightHandThumb1
								{
									OFFSET -6.591202 -4.852203 5.988100
									CHANNELS 3 Xrotation Yrotation Zrotation
									JOINT RightHandThumb2
									{
										OFFSET -3.818176 -2.204422 2.204423
										CHANNELS 3 Xrotation Yrotation Zrotation
										JOINT RightHandThumb3
										{
											OFFSET -3.252098 -1.877594 1.877601
											CHANNELS 3 Xrotation Yrotation Zrotation
											JOINT RightHandThumb4
											{
												OFFSET -5.251778 -3.032120 3.032117
												CHANNELS 3 Xrotation Yrotation Zrotation
												End Site
												{
													OFFSET -0.000023 6.780014 0.000000
												}
											}
										}
									}
								}
								JOINT RightHandIndex1
								{
									OFFSET -16.029404 0.000000 0.000000
									CHANNELS 3 Xrotation Yrotation Zrotation
									JOINT RightHandIndex2
									{
										OFFSET -5.213303 0.000000 0.000000
										CHANNELS 3 Xrotation Yrotation Zrotation
										JOINT RightHandIndex3
										{
											OFFSET -6.386528 0.000000 0.000000
											CHANNELS 3 Xrotation Yrotation Zrotation
											JOINT RightHandIndex4
											{
												OFFSET -5.189026 0.000000 0.000000
												CHANNELS 3 Xrotation Yrotation Zrotation
												End Site
												{
													OFFSET 0.236702 5.183624 0.001972
												}
											}
										}
									}
								}
							}
						}
					}
				}
			}
		}
	}
	JOINT LeftUpLeg
	{
		OFFSET 14.073000 -7.904099 -1.463000
		CHANNELS 3 Xrotation Yrotation Zrotation
		JOINT LeftLeg
		{
			OFFSET -0.109806 -34.073280 4.093200
			CHANNELS 3 Xrotation Yrotation Zrotation
			JOINT LeftFoot
			{
				OFFSET 0.109806 -29.899420 -6.319000
				CHANNELS 3 Xrotation Yrotation Zrotation
				JOINT LeftToeBase
				{
					OFFSET 1.551100 -14.988700 20.535801
					CHANNELS 3 Xrotation Yrotation Zrotation
					JOINT LeftToe_End
					{
						OFFSET 0.221200 0.570800 13.248301
						CHANNELS 3 Xrotation Yrotation Zrotation
						End Site
						{
							OFFSET 0.000000 13.262435 0.000000
						}
					}
				}
			}
		}
	}
	JOINT RightUpLeg
	{
		OFFSET -13.839300 -7.904099 -1.463000
		CHANNELS 3 Xrotation Yrotation Zrotation
		JOINT RightLeg
		{
			OFFSET 0.109694 -34.073219 4.093300
			CHANNELS 3 Xrotation Yrotation Zrotation
			JOINT RightFoot
			{
				OFFSET -0.109694 -29.899384 -6.319200
				CHANNELS 3 Xrotation Yrotation Zrotation
				JOINT RightToeBase
				{
					OFFSET -1.551100 -14.988700 20.535801
					CHANNELS 3 Xrotation Yrotation Zrotation
					JOINT RightToe_End
					{
						OFFSET -0.221200 0.570900 13.248299
						CHANNELS 3 Xrotation Yrotation Zrotation
						End Site
						{
							OFFSET 0.000000 13.262440 0.000000
						}
					}
				}
			}
		}
	}
}
MOTION
Frames: 7
Frame Time: 0.033333
-0.023239 69.801849 1.384900 -2.660344 -2.008551 1.660842 40.634110 2.129034 8.581000 7.351837 -1.146498 2.146863 7.396681 -1.034976 1.963956 -5.749062 2.838932 -2.048280 -35.798760 17.362703 -5.286420 -0.000001 0.000000 0.000001 1.645962 0.208706 -8.842157 -16.043829 -25.806186 -32.905095 -0.000001 -29.272159 -0.000002 -55.011850 -10.360086 -5.995706 0.041720 -0.758328 6.296863 1.870487 4.722356 -43.197695 0.267941 1.905754 -16.004863 0.000000 0.000001 0.000001 -9.143490 -13.093049 5.176804 14.758664 25.439224 4.300480 4.917940 10.174210 5.150676 0.000000 0.000000 -0.000001 0.894790 -0.802481 7.174375 -62.083257 21.894270 54.899985 -0.000009 30.893280 0.000012 -41.619389 12.658701 13.542082 10.227284 14.765334 -10.384926 3.278773 -23.779707 -10.210278 -1.265165 -7.320981 -7.067413 0.000003 0.000002 -0.000000 0.346930 2.172928 -18.140388 0.164267 -1.505473 12.453984 0.233127 -1.788828 14.848923 0.000002 -0.000001 0.000000 -44.751512 2.750280 8.966057 93.541442 8.120058 0.614356 -18.765081 -0.143592 1.730378 -15.678499 2.162305 -12.987203 -0.000000 -0.000000 0.000000 -34.877149 -5.782718 -17.340419 74.898290 5.675065 -1.672761 -36.305608 -2.599786 6.472931 -5.489728 -0.000001 -0.000001 0.000000 -0.000000 0.000000 
-0.466133 70.824814 10.058975 -1.407940 -4.482152 3.126701 39.492550 4.405645 5.702861 6.715700 -0.329453 1.492634 6.756518 -0.234896 1.325021 -4.523681 2.388008 -2.825474 -35.877382 15.016529 -6.151726 -0.000000 -0.000000 -0.000000 1.880380 -1.480731 -7.697294 -10.032321 -19.229276 -34.084399 0.000013 -33.617481 -0.000007 -47.282442 -8.736350 -4.420049 0.177653 -1.557037 13.017046 1.514415 4.313125 -38.679481 0.267942 1.905755 -16.004865 0.000000 0.000001 0.000001 -9.143491 -13.093050 5.176800 14.758666 25.439224 4.300479 4.917939 10.174212 5.150678 0.000000 0.000000 0.000002 0.847562 -0.750769 5.452044 -63.108783 25.466908 53.220158 -0.000001 31.724350 0.000005 -45.994781 13.574443 13.864402 10.227288 14.765332 -10.384922 3.278771 -23.779701 -10.210281 -1.265163 -7.320983 -7.067416 0.000002 -0.000002 -0.000001 0.402962 2.336883 -19.564252 0.119070 -1.283901 10.597223 0.233124 -1.788827 14.848923 0.000001 -0.000002 -0.000000 -50.159653 2.854980 8.122123 81.437630 8.208487 -0.624032 -14.637616 -0.246783 1.305541 -6.437996 0.896736 -8.535208 -0.000000 0.000001 0.000000 -27.727124 -6.728631 -19.568164 74.604025 8.052394 -2.831125 -40.913752 -3.293374 7.195119 -10.226041 0.000004 0.000001 0.000000 -0.000001 -0.000000 
-0.612759 71.991211 18.778507 0.330357 -6.451100 4.485676 37.431650 6.444444 2.628135 6.066151 0.441266 0.679968 6.103868 0.500030 0.530731 -3.319926 1.911630 -3.546173 -35.904091 12.326715 -6.102679 0.000001 0.000000 0.000000 2.174791 -2.654685 -6.285794 -4.977734 -13.535330 -35.429769 0.000006 -37.336341 -0.000015 -38.525248 -6.894838 -3.911440 0.365014 -2.216174 18.703571 1.239462 3.946142 -34.862686 0.267942 1.905755 -16.004865 0.000000 -0.000000 0.000000 -9.143491 -13.093048 5.176807 14.758661 25.439222 4.300477 4.917939 10.174211 5.150680 0.000000 0.000000 0.000002 0.802597 -0.818638 3.540199 -62.661993 27.602487 51.441928 0.000011 33.035275 -0.000020 -49.751258 13.961533 14.148600 10.227288 14.765332 -10.384927 3.278770 -23.779708 -10.210282 -1.265163 -7.320976 -7.067417 -0.000000 0.000004 0.000001 0.447966 2.459780 -20.639934 0.089728 -1.115624 9.194970 0.233126 -1.788828 14.848923 0.000000 0.000000 0.000000 -54.041222 2.240354 8.152679 68.536693 8.685697 -1.237691 -12.716470 1.708342 -1.412957 -0.112905 -0.000002 -0.000002 -0.000000 0.000001 0.000000 -21.183760 -7.674972 -22.061765 72.381379 8.442389 -4.132708 -41.731230 -3.362706 9.664199 -17.116312 0.000012 0.000000 0.000000 0.000000 0.000000 
-0.504934 73.118385 27.781544 2.509437 -7.657474 5.381573 34.479785 8.215034 -0.397049 5.443092 1.164769 -0.223603 5.480443 1.172658 -0.349208 -2.401284 1.451231 -4.225639 -35.507742 9.199779 -4.968393 -0.000000 0.000001 -0.000000 2.515425 -3.390808 -4.738162 -1.147710 -9.085910 -36.747456 0.000002 -39.323851 -0.000007 -30.498584 -5.502887 -4.446284 0.464156 -2.489659 21.118112 1.130326 3.785045 -33.244088 0.267942 1.905755 -16.004866 0.000000 0.000000 -0.000000 -9.143491 -13.093046 5.176807 14.758663 25.439224 4.300480 4.917941 10.174211 5.150673 -0.000001 0.000000 0.000002 0.714419 -1.193874 1.800748 -59.805533 27.298883 49.764396 -0.000004 34.943357 0.000001 -52.064958 13.931827 14.256568 10.227288 14.765332 -10.384925 3.278771 -23.779705 -10.210281 -1.265164 -7.320979 -7.067414 -0.000000 0.000001 0.000001 0.472226 2.523147 -21.197736 0.076114 -1.028101 8.467981 0.233126 -1.788826 14.848920 -0.000000 0.000002 0.000000 -56.514225 1.817631 8.878512 55.854982 8.800865 -1.437253 -15.680835 5.302204 -3.056524 0.299782 0.000010 -0.000000 0.000001 -0.000001 -0.000001 -14.789149 -8.878681 -23.608762 68.109383 7.646527 -5.686851 -39.851278 -3.984939 12.282392 -25.080724 0.000010 -0.000002 -0.000001 0.000001 0.000000 
-0.099284 74.001648 37.350227 5.164473 -8.128978 5.586670 30.628470 9.949639 -3.228408 4.936838 1.856843 -1.077920 4.978733 1.815534 -1.179938 -1.924267 1.022094 -4.919993 -34.523253 5.558077 -2.859247 0.000001 -0.000001 -0.000000 2.877130 -3.783419 -3.271274 1.262473 -6.390048 -37.524236 -0.000001 -39.300205 -0.000019 -24.937521 -4.996401 -5.393587 0.338433 -2.136114 18.003607 1.271956 3.992277 -35.332155 0.267942 1.905754 -16.004865 0.000000 0.000000 -0.000000 -9.143492 -13.093048 5.176804 14.758664 25.439224 4.300474 4.917940 10.174210 5.150676 -0.000001 -0.000000 -0.000000 0.460636 -2.229810 1.421232 -56.423861 24.626746 49.695739 -0.000001 35.611770 0.000007 -49.527559 13.475689 14.128201 10.227286 14.765332 -10.384926 3.278772 -23.779708 -10.210282 -1.265165 -7.320978 -7.067416 -0.000000 -0.000002 -0.000000 0.433772 2.421803 -20.306772 0.098371 -1.167820 9.629227 0.233124 -1.788824 14.848918 -0.000000 -0.000001 -0.000000 -57.911241 1.164174 9.700837 42.057347 8.594977 -1.193912 -17.254439 8.259872 -3.756771 0.522290 0.000004 -0.000001 -0.000001 0.000001 -0.000000 -9.584176 -9.728239 -24.209201 63.222027 6.931923 -7.078551 -34.029065 -4.839394 14.967593 -34.622987 0.000004 -0.000005 -0.000000 0.000003 0.000001 
0.543374 74.345490 47.308029 6.781198 -8.264430 5.469194 27.594290 11.469634 -6.292255 4.732578 2.491233 -1.771932 4.783011 2.415783 -1.851581 -1.971988 0.647749 -5.681932 -33.253497 1.528283 -0.180748 -0.000000 0.000002 0.000000 3.191013 -3.788202 -2.144769 2.052376 -6.054876 -37.139758 0.000010 -38.261866 -0.000011 -23.178725 -5.250784 -5.951338 0.200179 -1.651425 13.821771 1.474007 4.262296 -38.138957 0.267941 1.905754 -16.004865 0.000000 0.000000 -0.000001 -9.143491 -13.093049 5.176804 14.758663 25.439222 4.300477 4.917941 10.174208 5.150679 0.000001 0.000001 0.000004 0.196347 -3.498645 1.843174 -53.236595 21.282757 50.420402 0.000013 35.269557 -0.000004 -43.125862 12.987388 13.781414 10.227287 14.765334 -10.384924 3.278770 -23.779707 -10.210281 -1.265164 -7.320977 -7.067414 -0.000000 0.000001 -0.000001 0.362499 2.219817 -18.546407 0.150654 -1.442428 11.924452 0.233125 -1.788827 14.848922 -0.000000 -0.000000 0.000001 -57.756578 1.397463 10.186215 32.822764 8.008295 -1.125797 -19.287590 9.447591 -3.569807 0.761072 0.000001 -0.000003 -0.000001 -0.000000 0.000000 -5.906243 -9.043211 -24.165281 61.139878 4.608493 -8.380656 -23.394535 -3.598305 17.748269 -42.314856 -0.000013 -0.000000 -0.000000 0.000000 -0.000001 
1.243626 74.004227 57.092621 7.177258 -8.577402 5.338487 25.906187 12.534189 -9.670381 4.975240 2.982732 -2.243780 5.033322 2.893628 -2.303015 -2.585522 0.353686 -6.512443 -32.462499 -2.533033 2.442005 0.000000 0.000003 -0.000000 3.346739 -3.206170 -1.591982 0.749206 -8.603321 -35.394976 -0.000002 -37.187658 0.000002 -25.423296 -5.955759 -5.765872 0.094388 -1.138490 9.478306 1.697839 4.532082 -41.057719 0.267943 1.905754 -16.004866 -0.000000 -0.000000 0.000001 -9.143492 -13.093050 5.176801 14.758663 25.439221 4.300477 4.917941 10.174211 5.150675 -0.000000 -0.000000 0.000000 -0.025095 -4.832314 2.689205 -50.370989 17.864893 51.050968 -0.000009 34.692211 0.000010 -35.564556 12.511050 13.557282 10.227290 14.765334 -10.384924 3.278770 -23.779707 -10.210284 -1.265164 -7.320980 -7.067414 0.000002 -0.000002 0.000001 0.289288 1.988482 -16.552651 0.223120 -1.750716 14.525396 0.233127 -1.788825 14.848920 0.000001 -0.000002 0.000001 -57.961901 1.075324 9.750244 31.079833 9.693442 0.127675 -18.258761 7.730944 -2.476848 1.018446 -0.000003 0.000001 0.000001 0.000000 -0.000000 -5.280188 -6.764880 -23.220621 62.780203 -1.532603 -8.554375 -8.983410 3.097335 13.440783 -47.595285 -3.529112 13.941571 0.000001 -0.000001 0.000000 
